# xmcd
#
# Track frame offsets:
#	150
#	12834
#	27891
#	40914
#	53101
#	64299
#	83340
#	98996
#	113904
#	131273
#	145828
#
# Disc length: 2121 seconds
#
# Revision: 0
# Processed by: cddbd v1.5.2PL0 Copyright (c) Steve Scherf et al.
# Submitted via: EasyCDDAExtractor 10.5.1.1
#
DISCID=8708470b
DTITLE=Laura Latham - if only...
DYEAR=2008
DGENRE=Country
TTITLE0=Kick Down The Door
TTITLE1=What This Woman Want's To Hear
TTITLE2=Keep It To Yourself
TTITLE3=If Only
TTITLE4=Love is Rollercoaster
TTITLE5=Rest In Pieces
TTITLE6=I Won't Be The One
TTITLE7=Girls Like Fast Cars Too
TTITLE8=Red White and Blue Night In Georgia
TTITLE9=Good Riddance
TTITLE10=Bon Voyage
EXTD=
EXTT0=
EXTT1=
EXTT2=
EXTT3=
EXTT4=
EXTT5=
EXTT6=
EXTT7=
EXTT8=
EXTT9=
EXTT10=
PLAYORDER=
